<svg xmlns="http://www.w3.org/2000/svg" version="1.1" xmlns:xlink="http://www.w3.org/1999/xlink" xmlns:svgjs="http://svgjs.dev/svgjs" viewBox="0 0 4.55475752523046 3.6812250364550025"><g transform="matrix(1,0,0,1,2.275295242339184,3.5278816193581815)"><g transform="matrix(1,0,0,1,0,0)"><path d=" M -1.3912085775118426 -1.6592364734982366 Q -1.3833967044348847 -1.6744363879199995 -1.3696622888040215 -1.6723186352547996 Q -1.355927873173158 -1.6702008825895995 -1.329002310483178 -1.656362707424703 Q -1.3020767477931983 -1.642524532259806 -1.2748311129050989 -1.6378547436602129 Q -1.2475854780169995 -1.63318495506062 -1.224821105848029 -1.637955187312204 Q -1.1790691651364609 -1.6479299350845655 -1.1549639567847052 -1.694832528157434 Q -1.1308587484329495 -1.741735121230302 -1.1510997004216594 -1.7872733621620442 Q -1.171340652410369 -1.8328116030937864 -1.2360488595201597 -1.8660678627642642 Q -1.3224712300896113 -1.9104839411161105 -1.4275053239575863 -1.8716855065346976 Q -1.4573272137362019 -1.8606605500530269 -1.4872728111796927 -1.8483266890247458 Q -1.5172184086231835 -1.8359928279964648 -1.5479088649401853 -1.825414264262049 Q -1.5785993212571874 -1.814835700527633 -1.611400646529848 -1.810831933221423 Q -1.6833427876516862 -1.8022395758345517 -1.7515252609150225 -1.8372814064940484 Q -1.8214448672551318 -1.8732160226480545 -1.843235255410661 -1.9365693742105203 Q -1.8648145566706242 -1.9992652461301654 -1.8331206716155382 -2.0609334703556037 Q -1.8058907140329992 -2.113916029197177 -1.7528701688162203 -2.129488021556804 Q -1.692629457006476 -2.1462902068556424 -1.6221008089357922 -2.106199625949147 Q -1.6188497391558738 -2.1039797716909345 -1.614829591546321 -2.102188145962885 Q -1.6108094439367684 -2.100396520234835 -1.6005103531410063 -2.093730902721168 Q -1.590211262345244 -2.0870652852075002 -1.5858718715080824 -2.074678715441692 Q -1.581532480670921 -2.062292145675884 -1.5863312027039091 -2.0529550553882294 Q -1.5911299247368977 -2.0436179651005753 -1.6029463940905762 -2.0414560453484105 Q -1.6147628634442546 -2.039294125596246 -1.627543946190301 -2.0486078258982876 Q -1.6563450719842505 -2.0705468436725973 -1.6726306945789964 -2.0789167076836237 Q -1.6889163171737425 -2.08728657169465 -1.7066950993702814 -2.0890124242638723 Q -1.7244738815668206 -2.090738276833094 -1.7413451559065285 -2.085684300817575 Q -1.7772833398880339 -2.074508804830646 -1.7964782280199874 -2.037160443680029 Q -1.8176818835145874 -1.9959035331066723 -1.8028452534346697 -1.9553387726693 Q -1.786307818712164 -1.9106059380013767 -1.7407080754468753 -1.8871703187705031 Q -1.6951083321815867 -1.8637346995396293 -1.6619635447251944 -1.8593270486321083 Q -1.6288187572688018 -1.8549193977245872 -1.5978661632597277 -1.85959880889071 Q -1.5669135692506537 -1.8642782200568329 -1.5375259627412317 -1.8755263729121308 Q -1.5081383562318091 -1.8867745257674289 -1.478850238431139 -1.898897299900144 Q -1.449562120630469 -1.9110200740328591 -1.4195230892172568 -1.921933432327716 Q -1.3894840578040446 -1.932846790622573 -1.3575512990697705 -1.9372969506760378 Q -1.2860434412171255 -1.9461125044365364 -1.2169924014154028 -1.910624281029785 Q -1.136215713345463 -1.8691097555350946 -1.1094371223332424 -1.8026437642199071 Q -1.0828696182165876 -1.7368352525475403 -1.118357841623339 -1.6677842127458176 Q -1.1513909049201896 -1.6035102889052204 -1.2216564603555624 -1.5885663314637704 Q -1.2877660510384459 -1.574231415752895 -1.3459600091103379 -1.6041397298189624 Q -1.40415396718223 -1.6340480438850296 -1.3912085775118426 -1.6592364734982366 M -0.8447744826181859 -2.0346029535188648 Q -0.920697607712129 -1.9664117441902071 -1.026954684442959 -2.0127397867807284 Q -1.1332117611737889 -2.0590678293712497 -1.2708992747464851 -2.212367153723614 Q -1.379548426451954 -2.3333355779163556 -1.4122369440244946 -2.452303199568841 Q -1.427784015894789 -2.5105340679073036 -1.4200934618446053 -2.560430055658241 Q -1.4124029077944218 -2.610326043409178 -1.3744413452474502 -2.6444216480735068 Q -1.3364797827004784 -2.6785172527378354 -1.2903629182711034 -2.684168468096761 Q -1.2442460538417282 -2.6898196834556862 -1.1921131641735805 -2.6690429838915013 Q -1.0898790168349053 -2.628290111469919 -0.9632108204183993 -2.488721002055542 Q -0.8300171494249885 -2.341886521818778 -0.7991449745580443 -2.221287531522066 Q -0.7688513575242426 -2.1027941628475224 -0.8447744826181859 -2.0346029535188648 M -1.297416082478923 -2.636485746614003 Q -1.324114778912467 -2.6318673033212967 -1.3448210857562697 -2.6132697007771175 Q -1.3655273926000724 -2.5946720982329383 -1.3726126704906272 -2.568947084743036 Q -1.3796979483811822 -2.5432220712531337 -1.3763542847732047 -2.5120968422832304 Q -1.373010621165227 -2.480971613313328 -1.3603614767035381 -2.4460623798923242 Q -1.3477123322418492 -2.411153146471321 -1.3285495310277708 -2.3752029200637486 Q -1.2885555651431135 -2.3021756668129725 -1.2345572630192243 -2.242054723257721 Q -1.180558960895335 -2.181933779702469 -1.1394754465006751 -2.145326124707668 Q -1.0983919321060152 -2.108718469712867 -1.0638087153005016 -2.0862901056462357 Q -1.0292254984949878 -2.0638617415796046 -1.0003638897687817 -2.0540149548183804 Q -0.9715022810425754 -2.0441681680571566 -0.948020849051505 -2.043599886709802 Q -0.9051582438768777 -2.0433748351587018 -0.8724640751761366 -2.0727394707547746 Q -0.7758346432383907 -2.1595282826276114 -0.914676189799916 -2.355764201779151 Q -0.9464963563960327 -2.400691836859506 -0.9843441089420819 -2.4428309876293497 Q -1.0221918614881311 -2.484970138399194 -1.0531205556855034 -2.51429058537466 Q -1.0840492498828758 -2.5436110323501264 -1.1159449474422685 -2.5677969071131326 Q -1.147840645001661 -2.5919827818761383 -1.1795798852782526 -2.609417873397784 Q -1.2113191255548441 -2.626852964919429 -1.2410182558001113 -2.6339785774130693 Q -1.2707173860453786 -2.6411041899067094 -1.297416082478923 -2.636485746614003 M -0.8564899218934531 -2.9817493167789686 Q -0.8289121387305134 -2.993001934636818 -0.8128633230971871 -2.9536696865191825 Q -0.7910959639623307 -2.9003224994171024 -0.767700882721266 -2.8410474235228333 Q -0.7443058014802013 -2.7817723476285647 -0.7252041668938226 -2.733665829052672 Q -0.7061025323074438 -2.685559310476779 -0.6805444776386924 -2.621629473692642 Q -0.6273992077038725 -2.4887967572589202 -0.5497195414560364 -2.2958354316338707 Q -0.4590147984911774 -2.3307364123069902 -0.37960189361614993 -2.372631972387636 Q -0.36406435718279856 -2.3810812408390185 -0.3515175473047996 -2.3761808224301846 Q -0.33897073742680073 -2.3712804040213507 -0.3350968853773771 -2.361786413096404 Q -0.3312230333279535 -2.3522924221714576 -0.3365014680842855 -2.341964508065444 Q -0.3417799028406174 -2.3316365939594297 -0.35797215933928284 -2.3260843634889565 Q -0.4111711895244594 -2.3091237341884914 -0.46969931078080895 -2.282605567563542 Q -0.5282274320371586 -2.256087400938593 -0.5396961152169615 -2.249298354794106 Q -0.5511647983967642 -2.2425093086496193 -0.5572771563341639 -2.241333681349361 Q -0.5633895142715634 -2.240158054049102 -0.5693862154927468 -2.2419301210445943 Q -0.5824682766922241 -2.245557411551107 -0.5876515688722758 -2.260845478437873 Q -0.6253922111801693 -2.368849292772661 -0.6950293134971886 -2.5395150820187227 Q -0.7646664158142078 -2.710180871264784 -0.7814024517135356 -2.7505511218246887 Q -0.7981384876128634 -2.7909213723845934 -0.8128778631155616 -2.8244595445404093 Q -0.8421721449757474 -2.8910837940460916 -0.8700012057331623 -2.942484977066383 Q -0.8772605027977525 -2.9563986034211456 -0.8720743026140259 -2.9669525649301347 Q -0.8668881024302992 -2.9775065264391234 -0.8564899218934531 -2.9817493167789686 M -0.2558094848431518 -2.9967301500739163 Q -0.25217313248812334 -2.9703673101136374 -0.22485003962213823 -2.7848687963831043 Q -0.19752694675615318 -2.599370282652571 -0.1615608698292155 -2.3954028537271697 Q -0.15880087637754348 -2.380015798137297 -0.1670111066875009 -2.3704161235427508 Q -0.17522133699745832 -2.3608164489482046 -0.1856073214901835 -2.35928664036326 Q -0.19599330598290865 -2.3577568317783157 -0.20503125355984503 -2.3638288283243294 Q -0.2140692011367814 -2.369900824870343 -0.21680306520337034 -2.3951627230466963 Q -0.21953692926995932 -2.4204246212230496 -0.2251169488434217 -2.4650092812463336 Q -0.23069696841688409 -2.5095939412696175 -0.23713083464240853 -2.5599754298469803 Q -0.24985625931811373 -2.65977226890936 -0.26255722826753647 -2.746000093651287 Q -0.2752581972169592 -2.832227918393215 -0.28257954356339354 -2.8802577115436185 Q -0.2899008899098279 -2.9282875046940227 -0.2968439545666086 -2.968722996797233 Q -0.3115277848120899 -3.058360377722444 -0.32329041871304987 -3.1114118107463016 Q -0.32701655025706844 -3.1266565585608306 -0.32111493434646954 -3.1351758601477577 Q -0.3152133184358707 -3.1436951617346853 -0.30410273037388563 -3.1453317011511372 Q -0.29299214231190057 -3.1469682405675896 -0.2822278761295219 -3.1409037481053406 Q -0.27146360994714314 -3.134839255643092 -0.2695555196725451 -3.1168589701031735 Q -0.26764742939794706 -3.098878684563255 -0.2658104930110209 -3.0813814680695097 Q -0.26397355662409466 -3.0638842515757645 -0.26170969691113743 -3.04348862080498 Q -0.2594458371981802 -3.0230929900341947 -0.2558094848431518 -2.9967301500739163 M 0.43462226201512943 -2.9373482677355627 Q 0.44201345251598034 -2.87620799410739 0.43223361730965904 -2.8048536036684304 Q 0.42245378210333767 -2.73349921322947 0.40197236573334677 -2.673961352142213 Q 0.3814909493633558 -2.6144234910549558 0.35259413679093043 -2.565403122323405 Q 0.32369732421850494 -2.5163827535918544 0.2877271198267639 -2.4786816344557527 Q 0.2517569154350228 -2.440980515319651 0.21094672139470705 -2.4165103435156094 Q 0.12664232454783766 -2.36596648542804 0.0376307459663552 -2.378166415448129 Q 0.023601747168186762 -2.380089230505643 0.020716422643344626 -2.38960234794547 Q 0.017831098118502475 -2.399115465385297 0.01955500127351506 -2.411693188445724 L 0.025257142478556677 -2.453296426260982 Q 0.02936798846358668 -2.483289458174308 0.03499401029775591 -2.5261352444214342 Q 0.04062003213192515 -2.5689810306685605 0.04757213331610406 -2.6215019885006305 Q 0.05452423450028296 -2.6740229463327005 0.06152300884521855 -2.7304802767662486 Q 0.06852178319015415 -2.7869376071997967 0.07565316547009071 -2.844362454791839 Q 0.08278454775002728 -2.9017873023838816 0.08897785908158515 -2.9541658368775785 Q 0.10092739632621045 -3.0629255824339516 0.10561053949979535 -3.1258608708968425 Q 0.10770041639359232 -3.1590879741231537 0.13967515578466339 -3.1586482848696 Q 0.18704423493740013 -3.159055724099014 0.21703726685072577 -3.1549448781139837 Q 0.4115082157080951 -3.1282906831787893 0.43462226201512943 -2.9373482677355627 M 0.06998628219074882 -2.4200593076523385 Q 0.12491621751568291 -2.4145019936417724 0.18526344736891293 -2.4520654971517066 Q 0.2973558182299116 -2.5219645061213694 0.35396117962988066 -2.683252421078121 Q 0.37339525369687027 -2.7387446382092775 0.38330769683819266 -2.811066545806732 Q 0.393220139979515 -2.8833884534041863 0.3828895402457961 -2.9392638712247683 Q 0.3725589405120772 -2.9951392890453503 0.34887700477077227 -3.0309129853906924 Q 0.3043690116028889 -3.0981261816748966 0.22116253597237268 -3.1095304640849797 Q 0.18488064252883357 -3.114503261647516 0.16108312582420803 -3.1098794108520837 Q 0.15038374853768072 -3.0605827089296276 0.1380512105825907 -2.9706036131896507 Q 0.12326542582998279 -2.862725450017528 0.11592531624417288 -2.8055756336988593 Q 0.10858520665836296 -2.7484258173801908 0.10181849619967906 -2.693661641974008 Q 0.09505178574099515 -2.638897466567825 0.08891496297356588 -2.5887289976644903 Q 0.08277814020613655 -2.5385605287611557 0.07830873202959127 -2.4987597173278853 Q 0.07293069911478298 -2.4487336717629233 0.06998628219074882 -2.4200593076523385 M 0.641899530338613 -2.5015004679018857 L 0.5642091826209121 -2.34654284473641 Q 0.5535868698442219 -2.325650672098693 0.5460627316273995 -2.310852049813644 Q 0.5431785124813029 -2.3041019476815094 0.540744232469978 -2.2993141581186998 Q 0.6504281388179911 -2.243547016041075 0.688324572800158 -2.2286612956376675 Q 0.7277480657550299 -2.213546934282336 0.7329564233763065 -2.2087077453359916 Q 0.7381647809975831 -2.203868556389647 0.7405256333181446 -2.197738292191598 Q 0.7452473379592677 -2.1854777637955 0.7404894270280418 -2.1761198114681894 Q 0.7357315160968159 -2.1667618591408786 0.7240315759269134 -2.1642200938673892 Q 0.712331635757011 -2.1616783285939 0.697975609837657 -2.1700729740039604 Q 0.6294708963691451 -2.212024172747034 0.5701363870612184 -2.2375358773116703 Q 0.5108018777532917 -2.263047581876306 0.5032845747502668 -2.265500218810322 Q 0.4957672717472419 -2.267952855744338 0.4908798472466225 -2.271807217021482 Q 0.485992422746003 -2.2756615782986263 0.48341027224259375 -2.281356588900056 Q 0.4771615086287656 -2.2938457582480782 0.48533485585597846 -2.307766530570813 Q 0.5558188346482547 -2.430235347251017 0.633383847736379 -2.5827917328660113 Q 0.7109488608245034 -2.7353481184810056 0.7311939731705311 -2.77462791988361 Q 0.7514390855165589 -2.8139077212862147 0.7680364492301376 -2.8465517410326475 Q 0.8027949494753817 -2.9170701664540175 0.8153350106516593 -2.9471210215434263 Q 0.8278750718279368 -2.977171876632835 0.8340163501796003 -2.9811704370175254 Q 0.8401576285312639 -2.9851689974022158 0.8462732071911603 -2.985346238970606 Q 0.8543510984203807 -2.9850735414042235 0.8634767384112292 -2.97824266881225 Q 0.8802083021892974 -2.965901369956312 0.9102408003560152 -2.9506317953398193 Q 0.9681295287063554 -2.9211991370210733 0.9904564681480441 -2.9128600699343643 Q 1.0127834075897328 -2.904521002847655 1.0178811161195855 -2.899464187103001 Q 1.0229788246494382 -2.894407371358347 1.0251257215562284 -2.8889336589397647 Q 1.030290022563047 -2.8775436377369052 1.0252001643575497 -2.867532805014666 Q 1.020110306152052 -2.8575219722924263 1.0089562686701925 -2.854976535634399 Q 0.997802231188333 -2.8524310989763713 0.9846413169674124 -2.8599442230395793 Q 0.9714804027464919 -2.867457347102787 0.9567997723219428 -2.876290917494005 Q 0.9421191418973937 -2.8851244878852222 0.9251515943983251 -2.894846922392369 Q 0.8892541868308639 -2.9147417305414347 0.8611619729262412 -2.926285949894898 Q 0.8419090310184899 -2.8884188869890357 0.8224421336969673 -2.851208375862641 Q 0.7994344654498812 -2.807033807190341 0.7757629026542519 -2.761553477728183 Q 0.7120510543013389 -2.6394758580301403 0.6823970977997449 -2.581151876083181 Q 0.7368037973771324 -2.5534896032272165 0.7638115486747455 -2.5430445320189157 Q 0.7932168661383019 -2.531928223492996 0.7975216741054967 -2.5226185067199602 Q 0.8018264820726916 -2.5133087899469246 0.7969579220500418 -2.5037332108213044 Q 0.7847865219934175 -2.479794263007254 0.7403979979073456 -2.503458483033807 Q 0.7314789705611923 -2.508540998470228 0.7240796594186676 -2.512303067578639 L 0.6890454162753683 -2.530663473985923 L 0.6633654540748415 -2.5437200667739384 L 0.641899530338613 -2.5015004679018857 M 1.4673630358626872 -2.5490030344567733 Q 1.4755623646007239 -2.540630453623595 1.4754179878547726 -2.526820528980916 Q 1.4752736111088216 -2.5130106043382363 1.45705000267468 -2.4873046854029495 Q 1.4388263942405386 -2.4615987664676626 1.4056897145334064 -2.4130872481064944 Q 1.3725530348262742 -2.3645757297453267 1.3357136473994902 -2.308679275784531 Q 1.2988742599727061 -2.252782821823735 1.2600944995930925 -2.1929358663307372 Q 1.2213147392134789 -2.1330889108377393 1.1855002678789495 -2.0761458842727962 Q 1.1022651816794018 -1.942009303110368 1.0663713031345992 -1.8774708179919513 Q 1.056879961324298 -1.8613416108403202 1.0439096957505691 -1.8592328512852143 Q 1.0309394301768404 -1.8571240917301082 1.0244482949258946 -1.8637523848897075 Q 1.0179571596749488 -1.870380678049307 1.01649919274684 -1.8795459955090015 Q 1.0150412258187314 -1.888711312968696 1.029779868324364 -1.9113460930458679 Q 1.0445185108299966 -1.93398087312304 1.0775060277003123 -1.9847383089479675 Q 1.110493544570628 -2.0354957447728954 1.1483939422761544 -2.0937981072902137 Q 1.1501454487870308 -2.0961967970094384 1.1515480977631916 -2.0982538480312454 Q 1.1293632389429011 -2.123001076484172 1.0870000404630444 -2.166259410788926 Q 1.0371207906399873 -2.217192610857427 1.0094191807999229 -2.242688086240868 Q 1.00698439689421 -2.240987111591074 1.0045496129884972 -2.239286136941281 Q 0.8811455372395535 -2.160124669517992 0.8150719519251882 -2.1152377077404187 Q 0.7938638306805024 -2.101302709519248 0.7791733666915198 -2.1163035835120256 Q 0.7637996253077008 -2.132002172574235 0.7757329698610123 -2.150522850607793 Q 0.7792432017200626 -2.156010726278377 0.7920859609688677 -2.1624368919936447 Q 0.8049287202176728 -2.1688630577089127 0.8348041385505209 -2.1861603016245335 Q 0.8646795568833691 -2.2034575455401546 0.902557042002787 -2.2265409907999922 Q 0.9404345271222049 -2.2496244360598294 0.9849222583079784 -2.277472775990278 Q 1.0294099894937518 -2.3053211159207265 1.076332504585238 -2.3348704305009687 Q 1.1232550196767244 -2.3644197450812103 1.1707008210702843 -2.3944815177075798 Q 1.218146622463844 -2.4245432903339488 1.2622927149521994 -2.452740487799113 Q 1.3064388074405546 -2.4809376852642773 1.3451956552340594 -2.505565723499794 Q 1.3839525030275643 -2.5301937617353114 1.406890474271234 -2.544455960979305 Q 1.446523075320177 -2.5702833440744346 1.4673630358626872 -2.5490030344567733 M 1.0483540667794344 -2.267832191941161 Q 1.0729231776443546 -2.2399524645130904 1.1169945696113024 -2.1949498425347573 Q 1.1535499102350497 -2.157622086320171 1.176461359473962 -2.1363201201906166 Q 1.2010329824873138 -2.1747352498847037 1.2273488931742447 -2.214858573065882 Q 1.2680545888320924 -2.277275037626814 1.306645482769753 -2.3355701813068346 Q 1.3694519233487523 -2.4312483197513903 1.4175052837475235 -2.5029106856545065 Q 1.3695289772145927 -2.471645958749876 1.2857647213518892 -2.41900237065385 Q 1.1745345651315093 -2.348345776479528 1.1164847031156064 -2.3113165047425737 Q 1.081721669878089 -2.288891070947031 1.0483540667794344 -2.267832191941161 M 1.8374925421978707 -2.0279732019205587 Q 1.8434612366325462 -2.015673004655429 1.9177472412908774 -1.8715331497788008 Q 1.9275529535764155 -1.8513256828432307 1.9158015571874851 -1.8363968378889148 Q 1.9122613002263211 -1.8325079902672265 1.9065504943532252 -1.8297368107082703 Q 1.9008396884801293 -1.8269656311493137 1.8917117213515802 -1.8306772591532003 Q 1.8825837542230308 -1.834388887157087 1.8742831729888678 -1.8526130579536937 Q 1.865982591754705 -1.8708372287503003 1.8586542224259641 -1.8881763353066159 Q 1.8513258530972232 -1.9055154418629314 1.8447306131301104 -1.9202252705837868 Q 1.8330323068045535 -1.9465698787092152 1.8236399723930716 -1.9648070069485282 Q 1.7208972964481717 -1.9192927875965886 1.6027275441510347 -1.8619506874920284 Q 1.4762112294239882 -1.8005584018782241 1.4295331343697395 -1.777636399880885 Q 1.3828550393154913 -1.754714397883546 1.3406699769637693 -1.7331585495016255 Q 1.2323648755906231 -1.678975091944665 1.1802892474294975 -1.6520770946605066 Q 1.1655664612659358 -1.6443901015160747 1.1548008643714078 -1.648121165684021 Q 1.14403526747688 -1.6518522298519671 1.1398784981384453 -1.6604184386616108 Q 1.1357217288000105 -1.6689846474712546 1.1385871648917254 -1.680415662226339 Q 1.14145260098344 -1.6918466769814235 1.1550706765269763 -1.6984548743912427 L 1.2124048603590225 -1.7268191303986573 L 1.6340611222356456 -1.9260013165580758 Q 1.751352289013845 -1.9829170813458736 1.8012573682630388 -2.010932746692764 Q 1.7903987751283008 -2.0344284306029974 1.7726410722691237 -2.0654309637523216 Q 1.7516728970915216 -2.1019311351163603 1.7423677103451705 -2.1183109872099606 Q 1.7330625235988197 -2.1346908393035604 1.736241232456753 -2.144917038330782 Q 1.7394199413146865 -2.1551432373580033 1.7479861501243303 -2.159300006696438 Q 1.756552358933974 -2.163456776034873 1.7683096038979835 -2.160478277392614 Q 1.7800668488619933 -2.157499778750356 1.7869753615953248 -2.1415851343016374 Q 1.7938838743286563 -2.125670489852919 1.7989869406871002 -2.1140357104483463 Q 1.8040900070455441 -2.102400931043773 1.80780748362451 -2.093621554575748 Q 1.8115249602034758 -2.0848421781077233 1.8142831823197256 -2.078039619057308 Q 1.817041404435976 -2.0712370600068932 1.820125856761151 -2.0643214384059347 Q 1.823210309086326 -2.057405816804976 1.8274736622539514 -2.0486199616155973 L 1.8374925421978707 -2.0279732019205587" fill="#404040" fill-rule="nonzero"></path></g><g transform="matrix(1,0,0,1,0,0)"><g clip-path="url(#SvgjsClipPath1003)"><g clip-path="url(#a1d2279b2-984b-4c18-90c1-ab7da6861fff0683ef2f-db1b-4437-8e91-22392ccbc635)"><path d=" M 0.47980829450930695 -0.2921894447783966 C 0.4366210648415052 -0.291245443127087 0.4058276633054143 -0.316496641420005 0.40616601515176187 -0.3669144500442538 C 0.40650775051657284 -0.417328875150039 0.41138001710397765 -0.9200791166009419 0.416533115723851 -1.0138059615576778 C 0.42168959786218774 -1.1075328065144134 0.4210805645387621 -1.3333826639514055 0.4207049939893164 -1.350655525707448 C 0.41932790197468184 -1.4136938582004608 0.33030076416371346 -1.4174021944364297 0.3281725310501875 -1.5150640713661878 C 0.32704581940184996 -1.5666559608972626 0.34257278563073923 -1.8572122254297607 0.34518147836607893 -1.9054984174220198 C 0.34537540960224744 -1.909431342867405 0.34863475091569196 -1.9125125253733162 0.35257236072832243 -1.9124853068723071 C 0.3565099705409529 -1.912458088371298 0.35972640543659673 -1.9093321424353704 0.3598659484975628 -1.9053969118681156 L 0.36859880965179315 -1.5640371176065324 C 0.3688517597947447 -1.5578242547770476 0.3740317018567674 -1.5529572456075313 0.3802482637215394 -1.5530914353771892 L 0.38615588695876757 -1.5532200090788013 C 0.3921767173166055 -1.5533524697905015 0.39705778753126175 -1.558141695891862 0.39730458029591964 -1.5641589242712175 L 0.40673444625362576 -1.9150670076367289 C 0.40689253994256736 -1.9189443434234639 0.4100380147269713 -1.9220305534921935 0.4139176559515845 -1.9221148765961487 L 0.4158327274019116 -1.9221588623361736 C 0.4197754969815479 -1.92224283285143 0.42308297864742306 -1.9192025168977354 0.42333060431697334 -1.9152666352260743 L 0.4391282520229405 -1.5669469434851215 C 0.4395369193940357 -1.5604230817216944 0.44502084122577257 -1.5553840846669402 0.4515559153392863 -1.5555275686708916 L 0.4578729443105951 -1.555666292927894 C 0.46440841246606435 -1.5558067895384602 0.4696677300776779 -1.5610810399087662 0.46978969633895584 -1.5676168801408898 L 0.47038181207006424 -1.9162918413205068 C 0.4704552283368717 -1.9202345487871886 0.47362600168102764 -1.9234172647804757 0.47756840528648614 -1.9235055026846368 L 0.47948686025527687 -1.9235461049061984 C 0.4833661639110267 -1.923633008776249 0.48664335028080274 -1.9206863572596886 0.48696781957802115 -1.9168196702008091 L 0.5109535819655993 -1.5668995742266327 C 0.5114880051435577 -1.560590896773675 0.5168349467851805 -1.5557847236826732 0.5231647001002824 -1.5559234403311182 L 0.5293768399992236 -1.5560587810696571 C 0.5359124744184438 -1.556200742787715 0.5411308641900081 -1.5615500437213687 0.5411108820305568 -1.5680871892073127 L 0.5342118878835302 -1.9091999866210625 C 0.5342262061729954 -1.9131071516431213 0.5372926983149013 -1.9163213614948793 0.5411948700319837 -1.9165193499122588 C 0.5450970417490659 -1.9167173383296383 0.5484731137121093 -1.913830011342984 0.5488828239411598 -1.9099443606830269 C 0.553592681642318 -1.861817194058551 0.5817773904430692 -1.5722116982142897 0.5829041020914065 -1.5206198086832146 C 0.5850357187233961 -1.4229579317534569 0.4962555777602615 -1.4153720833583447 0.49762928625643266 -1.352333750865332 C 0.49800824032434177 -1.3350608891092892 0.5072486292480936 -1.1094005087062522 0.5164890181718453 -1.0159883309666196 C 0.5257294070955971 -0.9225761532269869 0.5525268733263231 -0.4205161495426333 0.5550645121739297 -0.3701626277691903 C 0.55760553454 -0.3198091059957473 0.5279422281707098 -0.293238335502074 0.48475161498444463 -0.2922977173692276 Z" fill="#404040" transform="matrix(1,0,0,1,0,0)" fill-rule="nonzero"></path></g><g clip-path="url(#a1d2279b2-984b-4c18-90c1-ab7da6861fff0683ef2f-db1b-4437-8e91-22392ccbc635)"><path d=" M 0.2217101225969298 -0.2005739153428696 C 0.2685211005391137 -0.2005739153428696 0.30128709333941095 -0.2286571185897166 0.29972729132774867 -0.2832704901086751 C 0.2981674893160864 -0.3378838616276336 0.28100290015087515 -0.8824476242501671 0.27320389009256396 -0.9838685901928463 C 0.26540149651578937 -1.0852895561355256 0.2607187069623391 -1.3299889949325396 0.2607187069623391 -1.3487100025909498 L 0.26074577511004704 -1.9404636972235765 C 0.26074577511004704 -2.0003756586563375 0.2255842512376094 -2.0428388153729555 0.17986953327759125 -1.991564976577447 C 0.12076623275760068 -1.925271699322571 0.09344093764657224 -1.651572123775108 0.09344093764657224 -1.5865713505732795 C 0.09344093764657224 -1.526984206913012 0.08908634938407933 -1.3631846945776978 0.15401268517971123 -1.2636584989745647 C 0.15990677434308553 -1.2546211211586216 0.18020788512393882 -1.2070116328590574 0.17838755219058888 -1.1679996649751847 C 0.1763033048170881 -1.1232864684803556 0.13989326263162782 -0.3378838616276336 0.13833346061996576 -0.2832704901086749 C 0.13677027508984008 -0.2286571185897166 0.1695362678901371 -0.2005739153428696 0.21635062935078464 -0.2005739153428696 Z" fill="#404040" transform="matrix(1,0,0,1,0,0)" fill-rule="nonzero"></path></g><g clip-path="url(#a1d2279b2-984b-4c18-90c1-ab7da6861fff0683ef2f-db1b-4437-8e91-22392ccbc635)"><path d=" M 0.7561402474213537 -1.6880058505898128 C 0.8394357049551944 -1.6880058505898128 0.8687640429966004 -1.5838273170994013 0.8687640429966004 -1.5063142926196402 C 0.8687640429966004 -1.4288012681398792 0.8397300710615168 -1.391508127635452 0.7970875878663346 -1.326135167402641 C 0.7932134592256552 -1.3201970924992414 0.7798790129610982 -1.2889266148598004 0.781073394978705 -1.263299846017437 C 0.7824437199564125 -1.2339309057544692 0.8063618119747209 -0.6172643646752725 0.8073870180691542 -0.5813923019255047 C 0.8084088406451237 -0.545520239175737 0.786886279698956 -0.5270699129944048 0.7561402474213537 -0.5270699129944048 C 0.7253942151437516 -0.5270699129944048 0.7038682706791202 -0.545520239175737 0.7048934767735533 -0.5813923019255047 C 0.7059186828679864 -0.617264364675272 0.7298367748862948 -1.2339309057544692 0.7312070998640026 -1.263299846017437 C 0.7324014818816094 -1.2889266148598004 0.7190670356170523 -1.3201970924992414 0.7151929069763729 -1.326135167402641 C 0.6725470402627269 -1.391508127635452 0.6435164518461072 -1.4288012681398792 0.6435164518461072 -1.5063142926196402 C 0.6435164518461072 -1.5838273170994013 0.6728447898875132 -1.6880058505898128 0.7561402474213537 -1.6880058505898128" fill="#404040" transform="matrix(1,0,0,1,0,0)" fill-rule="nonzero"></path></g><g clip-path="url(#a1d2279b2-984b-4c18-90c1-ab7da6861fff0683ef2f-db1b-4437-8e91-22392ccbc635)"><path d=" M 0.044251346224564836 -2.0276231328427063 L 0.044251346224564836 -0.18750000000000022 C -0.46063051185832754 -0.19126585604984858 -0.8687640429966004 -0.6017678501125543 -0.8687640429966004 -1.1075598746621214 C -0.8687640429966004 -1.6133552827301523 -0.46063051185832754 -2.023857276792858 0.044251346224564836 -2.0276231328427063" fill="#404040" transform="matrix(1,0,0,1,0,0)" fill-rule="nonzero"></path></g><g clip-path="url(#b1d2279b2-984b-4c18-90c1-ab7da6861fff0683ef2f-db1b-4437-8e91-22392ccbc635)"><path d=" M 0.051018383151515856 -0.4448876330350475 C -0.3117455489100136 -0.44859258575255323 -0.6113730264430897 -0.7438823926154536 -0.6113730264430897 -1.1075598746621216 C -0.6113730264430897 -1.4711730698579832 -0.3117455489100136 -1.7664628767208836 0.051018383151515856 -1.7701678294383894" fill="none" transform="matrix(1,0,0,1,0,0)" fill-rule="nonzero" stroke-dasharray="none" stroke-miterlimit="10" stroke-linejoin="miter" stroke-linecap="butt" stroke-width="0.018220246925815753" stroke="#4e888f"></path></g></g></g></g><defs><clipPath id="SvgjsClipPath1003"><path d=" M -0.8687640429966004 -2.0276231328427063 h 1.7375280859932007 v 1.8401231328427063 h -1.7375280859932007 Z"></path></clipPath><clipPath id="a1d2279b2-984b-4c18-90c1-ab7da6861fff0683ef2f-db1b-4437-8e91-22392ccbc635"><path d=" M -0.8687640429966004 -0.1874966164815366 L 0.8687640429966006 -0.1874966164815366 L 0.8687640429966006 -2.0276197493242427 L -0.8687640429966004 -2.0276197493242427 Z"></path></clipPath><clipPath id="b1d2279b2-984b-4c18-90c1-ab7da6861fff0683ef2f-db1b-4437-8e91-22392ccbc635"><path d=" M 0.044251346224564836 -2.0276197493242427 C -0.46063051185832754 -2.0238538932743944 -0.8687640429966004 -1.6133518992116884 -0.8687640429966004 -1.107556491143658 C -0.8687640429966004 -0.6017644665940904 -0.46063051185832754 -0.19126247253138495 0.044251346224564836 -0.1874966164815366 Z"></path></clipPath></defs></svg>